<?xml version="1.0" standalone="no"?>
<!DOCTYPE svg PUBLIC "-//W3C//DTD SVG 20010904//EN"
 "http://www.w3.org/TR/2001/REC-SVG-20010904/DTD/svg10.dtd">
<svg version="1.0" xmlns="http://www.w3.org/2000/svg"
 width="700.000000pt" height="700.000000pt" viewBox="0 0 700.000000 700.000000"
 preserveAspectRatio="xMidYMid meet">
<metadata>
Created by potrace 1.14, written by Peter Selinger 2001-2017
</metadata>
<g transform="translate(0.000000,700.000000) scale(0.100000,-0.100000)"
fill="#000000" stroke="none">
<path d="M3280 6993 c-19 -1 -87 -8 -150 -14 -947 -90 -1846 -599 -2429 -1376
-140 -187 -217 -310 -326 -528 -360 -712 -462 -1503 -299 -2303 142 -695 534
-1381 1063 -1859 843 -762 1967 -1066 3091 -836 284 58 566 157 845 298 216
109 340 185 528 326 678 508 1149 1249 1321 2074 208 1003 -21 2029 -633 2840
-666 880 -1709 1393 -2811 1383 -91 -1 -181 -3 -200 -5z m-383 -1558 c57 -17
99 -57 137 -133 25 -49 49 -121 456 -1317 272 -803 362 -1058 512 -1455 55
-146 116 -309 136 -363 36 -95 52 -114 70 -80 13 24 244 643 332 888 235 654
593 1789 721 2289 18 70 39 134 46 142 25 25 97 39 198 39 114 -1 158 -17 213
-79 38 -44 47 -85 39 -190 -26 -353 -721 -2352 -1169 -3364 l-81 -183 -50 -25
c-165 -84 -481 -63 -573 38 -97 105 -516 1151 -906 2258 -193 548 -458 1361
-458 1404 0 36 116 118 194 137 53 12 130 10 183 -6z m-1264 -24 c62 -30 95
-80 108 -162 6 -40 8 -729 7 -1859 l-3 -1795 -55 -19 c-40 -13 -86 -19 -165
-20 -125 -1 -168 10 -222 57 -74 65 -68 -103 -71 1944 l-2 1842 52 15 c29 8
62 17 73 20 11 2 67 4 125 3 88 -2 113 -6 153 -26z"/>
</g>
</svg>
